<svg width="192" height="208" viewBox="0 0 192 208" fill="none" xmlns="http://www.w3.org/2000/svg">
<path d="M185 2.79997C182.857 1.32776 180.386 0.402269 177.802 0.104211C175.219 -0.193847 172.602 0.144576 170.18 1.08997C156.15 6.54997 127.82 15.71 96 15.71C64.18 15.71 35.84 6.54997 21.79 1.08997C19.3658 0.148948 16.7489 -0.187038 14.1656 0.111096C11.5824 0.409231 9.1107 1.3325 6.96462 2.80097C4.81854 4.26945 3.06273 6.23886 1.84917 8.53872C0.635623 10.8386 0.000914308 13.3996 0 16V71.77C0 107.61 9.65 141.42 27.18 166.95C45.34 193.41 69.78 207.95 96 207.95C122.22 207.95 146.66 193.38 164.82 166.95C182.35 141.44 192 107.63 192 71.79V16C191.995 13.3962 191.355 10.833 190.135 8.5327C188.916 6.2324 187.153 4.26456 185 2.79997ZM176 71.8C176 104.44 167.34 135.03 151.63 157.93C136.54 179.9 116.79 192 96 192C75.21 192 55.46 179.9 40.37 157.92C24.66 135 16 104.43 16 71.79V16C31.11 21.87 61.58 31.71 96 31.71C130.42 31.71 160.9 21.87 176 16V71.81V71.8ZM158 90.67C159.414 92.2613 160.137 94.3489 160.012 96.4737C159.886 98.5985 158.921 100.586 157.33 102C155.739 103.414 153.651 104.137 151.526 104.011C149.401 103.886 147.414 102.921 146 101.33C143.32 98.33 137.15 96 132 96C126.85 96 120.64 98.34 118 101.33C117.299 102.118 116.45 102.76 115.502 103.22C114.553 103.68 113.523 103.948 112.47 104.01C110.345 104.135 108.256 103.41 106.665 101.995C105.074 100.58 104.11 98.5909 103.985 96.4652C103.86 94.3395 104.585 92.2513 106 90.66C111.71 84.28 122.14 80 132 80C141.86 80 152.25 84.28 158 90.66V90.67ZM60 96C54.81 96 48.64 98.34 46 101.33C45.2994 102.118 44.4505 102.76 43.5017 103.22C42.5529 103.68 41.5228 103.948 40.4702 104.01C38.3445 104.135 36.2563 103.41 34.665 101.995C33.0737 100.58 32.1097 98.5909 31.9849 96.4652C31.8602 94.3395 32.5851 92.2513 34 90.66C39.75 84.28 50.18 80 60 80C69.82 80 80.25 84.28 86 90.66C86.7006 91.4479 87.2391 92.3661 87.5849 93.3622C87.9306 94.3582 88.0768 95.4126 88.0151 96.4652C87.9533 97.5177 87.6848 98.5478 87.225 99.4966C86.7652 100.445 86.1229 101.294 85.335 101.995C84.5471 102.696 83.6289 103.234 82.6328 103.58C81.6367 103.926 80.5823 104.072 79.5298 104.01C78.4772 103.948 77.4471 103.68 76.4983 103.22C75.5495 102.76 74.7006 102.118 74 101.33C71.36 98.34 65.19 96 60 96ZM136.45 141.19C131.484 147.082 125.291 151.818 118.305 155.067C111.318 158.316 103.705 159.999 96 159.999C88.2947 159.999 80.6824 158.316 73.6954 155.067C66.7085 151.818 60.5157 147.082 55.55 141.19C54.1722 139.576 53.4919 137.481 53.6588 135.366C53.8257 133.25 54.8262 131.288 56.44 129.91C58.0538 128.532 60.1489 127.852 62.2643 128.019C64.3797 128.186 66.3422 129.186 67.72 130.8C71.1825 134.934 75.509 138.258 80.3951 140.539C85.2811 142.82 90.6078 144.002 96 144.002C101.392 144.002 106.719 142.82 111.605 140.539C116.491 138.258 120.818 134.934 124.28 130.8C125.658 129.186 127.62 128.186 129.736 128.019C130.783 127.936 131.837 128.061 132.836 128.385C133.835 128.71 134.761 129.228 135.56 129.91C136.359 130.592 137.016 131.425 137.493 132.361C137.97 133.297 138.259 134.318 138.341 135.366C138.424 136.413 138.299 137.467 137.975 138.466C137.65 139.465 137.132 140.391 136.45 141.19Z" fill="black"/>
</svg>
